HIERARCHY
ROOT joint_Root
{
	OFFSET 0.0 0.0 0.0
	CHANNELS 6 Xposition Yposition Zposition Zrotation Xrotation Yrotation 
	JOINT Hips
	{
		OFFSET -0.726466 93.3139 -2.00062
		CHANNELS 6 Xposition Yposition Zposition Zrotation Xrotation Yrotation 
		JOINT Spine
		{
			OFFSET 15.7357 0.0 0.0
			CHANNELS 6 Xposition Yposition Zposition Zrotation Xrotation Yrotation 
			JOINT Chest
			{
				OFFSET 8.98455 -0.406207 0.0
				CHANNELS 6 Xposition Yposition Zposition Zrotation Xrotation Yrotation 
				JOINT Neck
				{
					OFFSET 16.3773 0.0 0.0
					CHANNELS 6 Xposition Yposition Zposition Zrotation Xrotation Yrotation 
					JOINT Head
					{
						OFFSET 6.45672 0.0 0.0
						CHANNELS 6 Xposition Yposition Zposition Zrotation Xrotation Yrotation 
						End Site
						{
							OFFSET 0.0 0.0 0.0
						}
					}
				}
				JOINT Shoulder_L
				{
					OFFSET 12.9942 -0.242716 4.98039
					CHANNELS 6 Xposition Yposition Zposition Zrotation Xrotation Yrotation 
					JOINT UpperArm_L
					{
						OFFSET 5.34809 0.0 0.0
						CHANNELS 6 Xposition Yposition Zposition Zrotation Xrotation Yrotation 
						JOINT LowerArm_L
						{
							OFFSET 24.3286 1.87007e-05 0.0
							CHANNELS 6 Xposition Yposition Zposition Zrotation Xrotation Yrotation 
							JOINT Hand_L
							{
								OFFSET 22.2916 0.0 0.0
								CHANNELS 6 Xposition Yposition Zposition Zrotation Xrotation Yrotation 
								End Site
								{
									OFFSET 0.0 0.0 0.0
								}
							}
						}
					}
				}
				JOINT Shoulder_R
				{
					OFFSET 12.9945 -0.242716 -4.98039
					CHANNELS 6 Xposition Yposition Zposition Zrotation Xrotation Yrotation 
					JOINT UpperArm_R
					{
						OFFSET -5.34813 0.0 0.0
						CHANNELS 6 Xposition Yposition Zposition Zrotation Xrotation Yrotation 
						JOINT LowerArm_R
						{
							OFFSET -24.3289 0.000322201 0.0
							CHANNELS 6 Xposition Yposition Zposition Zrotation Xrotation Yrotation 
							JOINT Hand_R
							{
								OFFSET -22.2915 -0.000108084 0.0
								CHANNELS 6 Xposition Yposition Zposition Zrotation Xrotation Yrotation 
								End Site
								{
									OFFSET 0.0 0.0 0.0
								}
							}
						}
					}
				}
			}
		}
		JOINT UpperLeg_L
		{
			OFFSET -2.19248 -6.46944 0.0
			CHANNELS 6 Xposition Yposition Zposition Zrotation Xrotation Yrotation 
			JOINT LowerLeg_L
			{
				OFFSET 39.0811 0.0 -1.23785e-05
				CHANNELS 6 Xposition Yposition Zposition Zrotation Xrotation Yrotation 
				JOINT Foot_L
				{
					OFFSET 40.9854 0.0 -1.26872e-05
					CHANNELS 6 Xposition Yposition Zposition Zrotation Xrotation Yrotation 
					JOINT Toes_L
					{
						OFFSET 11.7543 0.0 0.0
						CHANNELS 6 Xposition Yposition Zposition Zrotation Xrotation Yrotation 
						End Site
						{
							OFFSET 0.0 0.0 0.0
						}
					}
				}
			}
		}
		JOINT UpperLeg_R
		{
			OFFSET -2.19251 6.46944 0.0
			CHANNELS 6 Xposition Yposition Zposition Zrotation Xrotation Yrotation 
			JOINT LowerLeg_R
			{
				OFFSET -39.0811 -0.00228153 -0.0401928
				CHANNELS 6 Xposition Yposition Zposition Zrotation Xrotation Yrotation 
				JOINT Foot_R
				{
					OFFSET -40.9854 0.0 0.0
					CHANNELS 6 Xposition Yposition Zposition Zrotation Xrotation Yrotation 
					JOINT Toes_R
					{
						OFFSET -11.7543 0.0 0.0
						CHANNELS 6 Xposition Yposition Zposition Zrotation Xrotation Yrotation 
						End Site
						{
							OFFSET 0.0 0.0 0.0
						}
					}
				}
			}
		}
	}
}
MOTION
Frames:	4
Frame Time:	0.0333333
0.000000 0.000000 0.000000 0.000000 0.000000 -0.000000 93.877300 91.302800 -14.735300 91.692900 4.879580 4.752680 15.735700 0.000005 -0.000001 89.591900 83.080200 -90.348500 8.984550 -0.406207 -0.000000 6.073170 -0.087144 -1.506920 16.377300 -0.000001 -0.000001 2.957590 -5.834130 1.745530 6.456720 -0.000001 -0.000000 5.333220 -7.087660 -1.091320 12.994200 -0.242716 4.980390 -89.848700 -0.446796 -71.291900 5.348090 -0.000007 -0.000001 -69.357400 30.773100 -17.571900 24.328600 0.000019 0.000005 3.414630 9.193870 -20.484100 22.291600 -0.000001 0.000005 8.500510 5.447170 -4.530990 12.994500 -0.242716 -4.980390 88.021300 6.235470 -72.354600 -5.348130 -0.000001 -0.000004 -72.595900 25.188200 -5.608670 -24.328900 0.000322 -0.000009 2.003790 17.733100 -6.555950 -22.291500 -0.000108 -0.000004 6.409820 5.261160 1.135850 -2.192480 -6.469440 -0.000000 176.507000 -6.261620 -10.055100 39.081100 -0.000007 -0.000012 -0.056674 0.105148 28.324700 40.985400 -0.000006 -0.000013 2.657110 -2.541540 -63.962400 11.754300 -0.000000 0.000003 -0.002511 -0.034951 -17.998000 -2.192510 6.469440 -0.000001 173.869000 10.326300 164.294000 -39.081100 -0.002282 -0.040193 0.154581 -0.059750 68.469700 -40.985400 0.000008 0.000006 4.093970 -4.510120 -46.449000 -11.754300 -0.000006 -0.000006 -0.020935 -0.172414 -23.619100
0.000000 0.000000 0.000000 0.000000 0.000000 -0.000000 94.098400 91.696600 -11.569900 90.830500 6.955260 5.180190 15.735700 0.000005 -0.000001 85.328600 82.969400 -85.616200 8.984550 -0.406207 -0.000000 6.246560 -1.138090 -0.512380 16.377300 -0.000001 -0.000001 3.194290 -6.245210 1.656480 6.456720 -0.000001 -0.000000 5.371790 -6.680440 -1.037870 12.994200 -0.242716 4.980390 -89.855300 -0.445905 -72.022500 5.348090 -0.000007 -0.000001 -65.431400 32.663000 -23.660300 24.328600 0.000019 0.000005 3.172560 6.740100 -25.290400 22.291600 -0.000001 0.000005 9.359160 5.484690 -5.926520 12.994500 -0.242716 -4.980390 88.011900 5.994060 -71.612500 -5.348130 -0.000001 -0.000004 -73.803200 24.197900 -1.580850 -24.328900 0.000322 -0.000009 2.003530 16.245300 -7.131880 -22.291500 -0.000108 -0.000004 6.399410 5.281080 0.596333 -2.192480 -6.469440 -0.000000 177.734000 -6.177150 -6.393830 39.081100 -0.000007 -0.000012 -0.064699 0.130680 26.340000 40.985400 -0.000006 -0.000013 2.751670 -0.794501 -65.230000 11.754300 -0.000000 0.000003 -0.002315 -0.032597 -17.902300 -2.192510 6.469440 -0.000001 175.885000 12.064100 161.581000 -39.081100 -0.002282 -0.040193 0.108774 -0.051001 64.221500 -40.985400 0.000008 0.000006 5.388790 -5.404600 -50.190100 -11.754300 -0.000006 -0.000006 -0.018533 -0.159025 -23.067600
0.000000 0.000000 0.000000 0.000000 0.000000 -0.000000 94.313100 91.936600 -8.428490 90.059400 8.689530 5.528110 15.735700 0.000005 -0.000001 81.537400 82.821800 -81.451700 8.984550 -0.406207 -0.000000 6.438890 -2.107400 0.289728 16.377300 -0.000001 -0.000001 3.280750 -6.447530 1.742230 6.456720 -0.000001 -0.000000 5.390070 -6.305890 -1.055860 12.994200 -0.242716 4.980390 -89.839500 -0.510844 -72.552200 5.348090 -0.000007 -0.000001 -61.453800 33.048100 -29.622100 24.328600 0.000019 0.000005 2.542250 4.436270 -29.870800 22.291600 -0.000001 0.000005 9.847270 5.512530 -7.045870 12.994500 -0.242716 -4.980390 87.909300 6.084410 -70.995400 -5.348130 -0.000001 -0.000004 -74.430900 23.439800 1.794270 -24.328900 0.000322 -0.000009 2.204300 15.219700 -8.345370 -22.291500 -0.000108 -0.000004 6.563050 5.292980 0.268413 -2.192480 -6.469440 -0.000000 178.939000 -5.545900 -2.899300 39.081100 -0.000007 -0.000012 -0.078932 0.173931 24.409100 40.985400 -0.000006 -0.000013 2.597330 0.293207 -66.493800 11.754300 -0.000000 0.000003 -0.001734 -0.025344 -17.607300 -2.192510 6.469440 -0.000001 177.653000 13.240200 159.999000 -39.081100 -0.002282 -0.040193 0.074745 -0.047311 56.517000 -40.985400 0.000008 0.000006 4.931420 -6.129090 -52.960000 -11.754300 -0.000006 -0.000006 -0.017742 -0.154447 -22.879300
0.000000 0.000000 0.000000 0.000000 0.000000 -0.000000 94.542900 91.964900 -5.349110 89.782100 9.742880 5.724350 15.735700 0.000005 -0.000001 79.142400 82.681600 -78.913800 8.984550 -0.406207 -0.000000 6.620110 -2.750770 0.615927 16.377300 -0.000001 -0.000001 3.235810 -6.597270 1.841530 6.456720 -0.000001 -0.000000 5.457170 -6.133790 -0.838722 12.994200 -0.242716 4.980390 -89.768700 -0.750830 -72.878600 5.348090 -0.000007 -0.000001 -57.831600 32.491900 -35.192700 24.328600 0.000019 0.000005 2.037750 3.035080 -33.912700 22.291600 -0.000001 0.000005 10.241800 5.530460 -7.814160 12.994500 -0.242716 -4.980390 87.753100 6.367770 -70.517800 -5.348130 -0.000001 -0.000004 -74.700900 23.234200 4.251700 -24.328900 0.000322 -0.000009 2.427010 15.008500 -9.299110 -22.291500 -0.000108 -0.000004 6.707140 5.303260 -0.018543 -2.192480 -6.469440 -0.000000 179.653000 -5.083080 0.359623 39.081100 -0.000007 -0.000012 -0.097245 0.233311 22.626700 40.985400 -0.000006 -0.000013 2.343010 0.888947 -67.784700 11.754300 -0.000000 0.000003 -0.001508 -0.022388 -17.487100 -2.192510 6.469440 -0.000001 178.798000 13.887800 159.687000 -39.081100 -0.002282 -0.040193 0.041049 -0.036958 45.635700 -40.985400 0.000008 0.000006 4.623780 -5.926080 -54.294400 -11.754300 -0.000006 -0.000006 -0.018875 -0.160974 -23.147800
